<?xml version="1.0" encoding="UTF-8"?>
<!-- Created with Inkscape (http://www.inkscape.org/) -->
<svg width="100" height="116.77" version="1.1" viewBox="0 0 26.458 30.896" xmlns="http://www.w3.org/2000/svg">
 <g transform="translate(-63.345 -59.965)">
  <path d="m83.224 59.965c-0.37088 3.2608 0.23488 3.3725 0.23488 3.3725s-0.71588 0.77882-1.7324 1.8902l-0.78593 2.699-0.4039-1.3948c-1.33 1.4592-2.9496 3.2424-4.7379 5.2327-0.38899-0.66912-0.73381-1.2576-1.0948-1.8754l-0.74875 1.1297 0.0469-2.3319c-1.7165-2.9292-2.9207-4.9531-2.9207-4.9531s1.2995-1.4713 1.6734-3.5965c-4.0508 3.8967-8.3875 4.6474-8.3875 4.6474 3.1255 1.085 3.6178 0.90039 3.6178 0.90039s0.57031 0.85969 0.91922 1.3866l1.4824-0.85118-0.62444 2.1442c1.0137 1.523 2.3694 3.5518 3.8883 5.8005-1.725 1.9364-3.456 3.9024-4.9972 5.6926l-0.77524 2.6624-0.3796-1.311c-2.5808 3.0433-4.3632 5.3268-4.1335 5.5833 0.38264 0.42714 6.1661-4.9939 11.77-10.437 4.7539 6.9907 10.223 14.788 10.779 14.497 0.35652-0.18657-1.4219-3.679-3.86-8.0993l-1.9168-0.60998 1.3776-0.36222c-1.3378-2.4058-2.8273-5.019-4.2566-7.4965 0.15215-0.14898 0.29626-0.29115 0.44691-0.4389l-1.3791-0.43889 2.494-0.65567c3.9042-3.8422 7.0176-6.974 7.0176-6.974s0.22875 0.75284 3.9656 0.61958c-4.8097-2.1506-6.5795-6.4323-6.5795-6.4323z" fill="#fff" stop-color="#000000" stroke-linecap="square" stroke-linejoin="bevel" stroke-width=".3527"/>
 </g>
</svg>
