<?xml version="1.0" encoding="UTF-8"?>
<!-- Created with Inkscape (http://www.inkscape.org/) -->
<svg width="7.9375mm" height="7.9375mm" version="1.1" viewBox="0 0 7.9375 7.9375" xmlns="http://www.w3.org/2000/svg">
 <g transform="translate(114.05 7.6295)">
  <rect x="-114.05" y="-7.6295" width="7.9375" height="7.9375" ry=".9522" fill="#1a1a1a" fill-opacity=".11765" stop-color="#000000"/>
  <path d="m-112.2-5.9086h4.2329c0.2294 0 0.41409 0.21335 0.41409 0.47835 0 0.26501-0.18469 0.47835-0.41409 0.47835h-4.2329c-0.2294 0-0.41409-0.21335-0.41409-0.47835 0-0.26501 0.18469-0.47835 0.41409-0.47835zm0 1.7695h4.2329c0.2294 0 0.41409 0.21335 0.41409 0.47835 0 0.26501-0.18469 0.47835-0.41409 0.47835h-4.2329c-0.2294 0-0.41409-0.21335-0.41409-0.47835 0-0.26501 0.18469-0.47835 0.41409-0.47835zm0 1.7695h4.2329c0.2294 0 0.41409 0.21335 0.41409 0.47835 0 0.26501-0.18469 0.47835-0.41409 0.47835h-4.2329c-0.2294 0-0.41409-0.21335-0.41409-0.47835 0-0.26501 0.18469-0.47835 0.41409-0.47835z" fill="#fff" stop-color="#000000" stroke-linecap="square" stroke-linejoin="bevel" stroke-opacity=".91696" stroke-width=".041587"/>
 </g>
</svg>
