<?xml version="1.0" encoding="UTF-8"?>
<!-- Created with Inkscape (http://www.inkscape.org/) -->
<svg width="20px" height="20px" version="1.1" viewBox="0 0 90.63 90.63" xmlns="http://www.w3.org/2000/svg">
 <g transform="translate(-61.97 -94.376)" fill-opacity="1" stroke-linecap="square" stroke-linejoin="bevel">
  <path d="m152.6 139.69a45.315 45.315 0 0 1-45.315 45.315 45.315 45.315 0 0 1-45.315-45.315 45.315 45.315 0 0 1 45.315-45.315 45.315 45.315 0 0 1 45.315 45.315z" fill="#909090" stop-color="#000000" stroke-width="1.3229"/>
  <g transform="matrix(.26458 0 0 .26458 -439.98 -168.74)" stop-color="#000000" stroke-width="11.381" aria-label="X">
   <path d="m1987.2 1237.4 52.493-76.659-44.171-68.177q-6.2415-9.9225-9.4423-16.964-3.0407-7.2017-3.0407-13.763 0-6.7217 5.9214-12.003 6.0815-5.4413 14.724-5.4413 9.9224 0 15.364 5.9214 5.6014 5.7614 15.364 21.605l35.209 56.974 37.609-56.974q4.6411-7.2017 7.8419-12.323 3.3608-5.1212 6.4015-8.4821 3.0408-3.3608 6.7217-4.9612 3.8409-1.7604 8.8021-1.7604 8.9622 0 14.564 5.4413 5.7614 5.2813 5.7614 12.643 0 10.723-12.323 29.127l-46.251 69.137 49.772 76.659q6.7216 10.082 9.7623 16.804 3.0408 6.5616 3.0408 12.483 0 5.6013-2.7207 10.242-2.7207 4.6411-7.6819 7.3618-4.9612 2.7206-11.203 2.7206-6.7216 0-11.363-2.8807-4.6411-2.7206-7.5218-6.8817-2.8807-4.161-10.723-16.164l-41.29-64.976-43.851 66.896q-5.1213 8.0019-7.3618 11.203-2.0805 3.2008-5.1213 6.2415-3.0407 3.0408-7.2017 4.8012t-9.7624 1.7604q-8.6421 0-14.404-5.2813-5.6014-5.2813-5.6014-15.364 0-11.843 11.683-28.967z"/>
  </g>
 </g>
</svg>
