<?xml version="1.0" encoding="UTF-8"?>
<!-- Created with Inkscape (http://www.inkscape.org/) -->
<svg width="79.375mm" height="79.375mm" version="1.1" viewBox="0 0 79.375 79.375" xmlns="http://www.w3.org/2000/svg">
 <defs>
  <filter id="filter12538" x="-.49325" y="-.27817" width="1.8684" height="1.3809" color-interpolation-filters="sRGB">
   <feFlood flood-color="rgb(0,0,0)" flood-opacity=".25466" result="flood"/>
   <feComposite in="flood" in2="SourceGraphic" operator="in" result="composite1"/>
   <feGaussianBlur in="composite1" result="blur" stdDeviation="11.4094"/>
   <feOffset dx="-8.6206896551724128" dy="-46.767241379310342" result="offset"/>
   <feComposite in="SourceGraphic" in2="offset" result="composite2"/>
  </filter>
  <filter id="filter12526" x="-.054378" y="-.076356" width="1.1588" height="1.235" color-interpolation-filters="sRGB">
   <feFlood flood-color="rgb(0,0,0)" flood-opacity=".27329" result="flood"/>
   <feComposite in="flood" in2="SourceGraphic" operator="in" result="composite1"/>
   <feGaussianBlur in="composite1" result="blur" stdDeviation="11.4094"/>
   <feOffset dx="25.215517241379317" dy="29.525862068965523" result="offset"/>
   <feComposite in="SourceGraphic" in2="offset" result="composite2"/>
  </filter>
 </defs>
 <rect width="79.375" height="79.375" fill="none" stop-color="#000000" stroke-linecap="square" stroke-linejoin="bevel" stroke-opacity=".81834" stroke-width=".52917"/>
 <g id="computer" transform="matrix(.4065 0 0 .4065 103.88 19.011)">
  <rect transform="matrix(0 .30721 -.30721 0 64.68 154.44)" x="-181.85" y="600.86" width="72.992" height="266.57" ry="87.941" fill="#4d4d4d" filter="url(#filter12538)" stop-color="#000000"/>
  <path transform="matrix(.30721 0 0 .30721 -90.582 240.71)" d="m-464.34-830.35 22.632-12.718 3.4679 12.445zm36.199-15.909h437.17c16.729 0 30.197 13.468 30.197 30.197v291.66c0 16.729-13.468 30.197-30.197 30.197h-437.17c-16.729 0-30.197-13.468-30.197-30.197v-291.66c0-16.729 13.468-30.197 30.197-30.197zm453.78 347.1-20.505 11.513-5.5938-11.185z" fill="#666" filter="url(#filter12526)" stop-color="#000000"/>
  <rect x="-170.98" y="85.064" width="24.263" height="22.324" ry="3.7695" fill="#909090" stop-color="#000000"/>
  <rect transform="matrix(0 .30721 -.30721 0 64.68 153.44)" x="-181.85" y="600.86" width="72.992" height="266.57" ry="87.941" fill="#666" filter="url(#filter12538)" stop-color="#000000"/>
  <rect x="-172.99" y="85.114" width="24.263" height="22.324" ry="3.7695" fill="#666" stop-color="#000000"/>
  <rect x="-237.28" y="-15.983" width="152.85" height="108.15" ry="9.2768" fill="#1a1a1a" stop-color="#000000"/>
  <path d="m-177.68-8.9276 19.902 94.042h57.147c5.3377 0 9.635-3.5975 9.635-8.0663v-77.909c0-4.4688-4.2972-8.0665-9.635-8.0665z" stop-color="#000000"/>
  <rect x="-233.23" y="-11.206" width="141.06" height="94.042" ry="8.0664" fill="#fff" fill-opacity=".77509" stop-color="#000000"/>
  <path d="m-188.3 103.42c-0.4809 1.2811-1.9408 1.2658-4.2354 2.2711l-2.4218 1.4016c-1.8433 1.0668-3.3243 2.7534-4.343 1.8397-1.4678-1.3167 2.5593-4.2092 3.3208-4.6448 0 0 0.73291-0.47302 1.2763-0.7608 0.54344-0.28777 1.5112-0.72258 1.5112-0.72258 1.9684-0.98152 5.4455-0.85948 4.8917 0.61589z" fill="#ccc" fill-opacity=".087238" stop-color="#000000" stroke-linecap="square" stroke-linejoin="bevel" stroke-opacity=".91696" stroke-width=".15399"/>
  <g id="gear-bot">
   <circle cx="-175.75" cy="48.15" r="13.448" fill="#fff" fill-opacity=".86851" stop-color="#000000"/>
   <path d="m-178.97 26.848-4.6504 1.246 1.1235 4.1929a17.465 17.208 0 0 0-3.6604 2.0556l-3.0328-3.0328-3.4043 3.4043 2.9805 2.9805a17.465 17.208 0 0 0-2.1757 3.6666l-4.0205-1.0773-1.246 4.6504 3.9845 1.0676a17.465 17.208 0 0 0-0.14747 2.148 17.465 17.208 0 0 0 0.14747 2.148l-3.9845 1.0676 1.246 4.6504 4.0205-1.0773a17.465 17.208 0 0 0 2.1757 3.6666l-2.9805 2.9805 3.4043 3.4043 3.0328-3.0328a17.465 17.208 0 0 0 3.6604 2.0556l-1.1235 4.1929 4.6504 1.246 1.1329-4.2283a17.465 17.208 0 0 0 2.0827 0.13442 17.465 17.208 0 0 0 2.0828-0.13442l1.1329 4.2283 4.6504-1.246-1.1235-4.1929a17.465 17.208 0 0 0 3.6603-2.0556l3.0328 3.0328 3.4043-3.4043-2.9805-2.9805a17.465 17.208 0 0 0 2.1757-3.6665l4.0205 1.0772 1.2461-4.6504-3.9845-1.0676a17.465 17.208 0 0 0 0.14747-2.148 17.465 17.208 0 0 0-0.13726-2.1508l3.9743-1.0649-1.2461-4.6504-4.009 1.0742a17.465 17.208 0 0 0-2.1811-3.6695l2.9745-2.9745-3.4043-3.4043-3.0249 3.0249a17.465 17.208 0 0 0-3.666-2.0563l1.1212-4.1842-4.6504-1.246-1.1302 4.218a17.465 17.208 0 0 0-2.0855-0.12421 17.465 17.208 0 0 0-2.0827 0.13442z" fill="#1a1a1a" fill-opacity=".19204" stop-color="#000000" stroke-linecap="square" stroke-linejoin="bevel" stroke-opacity=".91696" stroke-width=".10252"/>
   <circle cx="-175.75" cy="48.15" r="14.861" fill="#1a1a1a" fill-opacity=".11765" stop-color="#000000"/>
   <circle cx="-175.75" cy="48.15" r="6.5797" fill="#1a1a1a" fill-opacity=".11765" stop-color="#000000"/>
   <circle cx="-175.75" cy="48.15" r="2.9634" fill="#e7e7e7" stop-color="#000000"/>
  </g>
  <g id="gear-top">
   <path d="m-148.27 2.9568-4.6504 1.246 1.1235 4.1929a17.465 17.208 0 0 0-3.6604 2.0556l-3.0328-3.0328-3.4043 3.4043 2.9805 2.9805a17.465 17.208 0 0 0-2.1757 3.6666l-4.0205-1.0773-1.246 4.6504 3.9845 1.0676a17.465 17.208 0 0 0-0.14747 2.148 17.465 17.208 0 0 0 0.14747 2.148l-3.9845 1.0676 1.246 4.6504 4.0205-1.0773a17.465 17.208 0 0 0 2.1757 3.6666l-2.9805 2.9805 3.4043 3.4043 3.0328-3.0328a17.465 17.208 0 0 0 3.6604 2.0556l-1.1235 4.1929 4.6504 1.246 1.1329-4.2283a17.465 17.208 0 0 0 2.0827 0.13442 17.465 17.208 0 0 0 2.0828-0.13442l1.1329 4.2283 4.6504-1.246-1.1235-4.1929a17.465 17.208 0 0 0 3.6603-2.0556l3.0328 3.0328 3.4043-3.4043-2.9805-2.9805a17.465 17.208 0 0 0 2.1757-3.6665l4.0205 1.0772 1.2461-4.6504-3.9845-1.0676a17.465 17.208 0 0 0 0.14747-2.148 17.465 17.208 0 0 0-0.13726-2.1508l3.9743-1.0649-1.2461-4.6504-4.009 1.0742a17.465 17.208 0 0 0-2.1811-3.6695l2.9744-2.9745-3.4043-3.4043-3.0248 3.0249a17.465 17.208 0 0 0-3.666-2.0563l1.1212-4.1842-4.6504-1.246-1.1302 4.218a17.465 17.208 0 0 0-2.0855-0.12421 17.465 17.208 0 0 0-2.0827 0.13442z" fill="#1a1a1a" fill-opacity=".19204" stop-color="#000000" stroke-linecap="square" stroke-linejoin="bevel" stroke-opacity=".91696" stroke-width=".10252"/>
   <circle cx="-151.21" cy="17.457" r="3.7466" fill="#e7e7e7" stop-color="#000000"/>
   <circle cx="-138.89" cy="17.457" r="3.7466" fill="#e7e7e7" stop-color="#000000"/>
   <circle cx="-138.89" cy="31.06" r="3.7466" fill="#e7e7e7" stop-color="#000000"/>
   <circle cx="-151.21" cy="31.06" r="3.7466" fill="#e7e7e7" stop-color="#000000"/>
  </g>
 </g>
</svg>
