<?xml version="1.0" encoding="UTF-8"?>
<!-- Created with Inkscape (http://www.inkscape.org/) -->
<svg width="79.375mm" height="79.375mm" version="1.1" viewBox="0 0 79.375 79.375" xmlns="http://www.w3.org/2000/svg">
 <defs>
  <filter id="filter2791" x="-.05888" y="-.033761" width="1.1793" height="1.114" color-interpolation-filters="sRGB">
   <feFlood flood-color="rgb(0,0,0)" flood-opacity=".27843" result="flood"/>
   <feComposite in="flood" in2="SourceGraphic" operator="in" result="composite1"/>
   <feGaussianBlur in="composite1" result="blur" stdDeviation="10"/>
   <feOffset dx="25.0831" dy="33.0565" result="offset"/>
   <feComposite in="SourceGraphic" in2="offset" result="composite2"/>
  </filter>
 </defs>
 <rect width="79.375" height="79.375" fill="none" stop-color="#000000" stroke-linecap="square" stroke-linejoin="bevel" stroke-opacity=".81834" stroke-width=".52917"/>
 <g id="phone" transform="matrix(.34916 0 0 .34916 175.41 -.20732)">
  <g transform="matrix(-.20488 .10839 .10839 .20488 -527.5 367.69)" fill="#666" filter="url(#filter2791)">
   <path d="m-843.15-349.43-21.375 14.788-3.028-12.332" stop-color="#000000"/>
   <path d="m-1235.4-1025.3 19.036-13.178 3.4183 12.229" stop-color="#000000"/>
   <rect x="-1232.8" y="-1045.5" width="405.03" height="703.89" ry="38.787" stop-color="#000000"/>
  </g>
  <rect transform="matrix(-.88392 .46763 .46763 .88392 0 0)" x="347.68" y="-160.7" width="93.882" height="163.15" ry="8.9904" fill="#1a1a1a" stop-color="#000000"/>
  <path d="m-388.81 30.05c-0.83322 0.13117-1.6604 0.39263-2.4498 0.8102l-60.728 32.128c-3.8219 2.0219-5.2709 6.7266-3.2489 10.548l57.144 108.01 9.8967-150.35-0.57159-1.0806c-0.013-0.02478-0.0292-0.04682-0.0425-0.07139z" stop-color="#000000"/>
  <rect transform="matrix(-.88392 .46763 .46763 .88392 0 0)" x="352.47" y="-155.69" width="84.312" height="141.64" ry="7.8047" fill="#fff" fill-opacity=".77647" stop-color="#000000"/>
  <circle transform="matrix(-.88392 .46763 .46763 .88392 0 0)" cx="394.62" cy="-5.805" r="4.9573" fill="#666" stop-color="#000000"/>
  <rect transform="matrix(-.88392 .46763 .46763 .88392 0 0)" x="387.87" y="-159.42" width="13.514" height="1.9481" ry=".97403" fill="#666" stop-color="#000000"/>
  <rect transform="rotate(-29.197)" x="-396.3" y="-16.779" width="3.8268" height="3.8268" fill="none" stop-color="#000000" stroke="#999" stroke-linecap="square" stroke-linejoin="bevel" stroke-opacity=".81834" stroke-width=".18398"/>
  <g id="gear-phone">
   <path d="m-398.16 96.45-2.6618 2.4718 2.2287 2.3999a12.983 13.177 62.119 0 0-1.7159 2.6624l-3.0927-0.95259-1.0693 3.4716 3.0393 0.93613a12.983 13.177 62.119 0 0-0.15725 3.2129l-3.0615 0.70011 0.80978 3.5411 3.0341-0.69387a12.983 13.177 62.119 0 0 0.65953 1.4846 12.983 13.177 62.119 0 0 0.85623 1.3805l-2.2807 2.1179 2.4718 2.6618 2.3014-2.1371a12.983 13.177 62.119 0 0 2.7446 1.6777l-0.9361 3.0393 3.4716 1.0693 0.95259-3.0927a12.983 13.177 62.119 0 0 3.1665 0.0794l0.73012 3.1928 3.5411-0.80978-0.73635-3.2196a12.983 13.177 62.119 0 0 1.4364-0.64528 12.983 13.177 62.119 0 0 1.3417-0.82447l2.2474 2.4202 2.6618-2.4718-2.2287-2.4a12.983 13.177 62.119 0 0 1.7159-2.6624l3.0928 0.95257 1.0693-3.4716-3.0393-0.93613a12.983 13.177 62.119 0 0 0.15726-3.2129l3.0614-0.70005-0.80967-3.5412-3.0341 0.69385a12.983 13.177 62.119 0 0-0.65951-1.4845 12.983 13.177 62.119 0 0-0.85046-1.386l2.2749-2.1125-2.4719-2.6617-2.2946 2.131a12.983 13.177 62.119 0 0-2.7494-1.6778l0.93434-3.0332-3.4716-1.0693-0.9501 3.0847a12.983 13.177 62.119 0 0-3.1705-0.07796l-0.72859-3.186-3.5411 0.80978 0.7345 3.2118a12.983 13.177 62.119 0 0-1.4347 0.65304 12.983 13.177 62.119 0 0-1.3416 0.82453zm5.1723 6.9323 2.4808 4.6893a2.4773 2.4773 0 0 0-0.46831 1.5052l-4.6837 2.4779a6.4166 6.4166 0 0 1 2.6712-8.6723zm1.9375-1.025a6.4166 6.4166 0 0 1 8.6724 2.6711l-4.6826 2.4773a2.4773 2.4773 0 0 0-1.5094-0.45983zm-3.5711 11.658 4.6837-2.4779a2.4773 2.4773 0 0 0 1.5078 0.45971l2.4808 4.6893a6.4166 6.4166 0 0 1-8.6723-2.6711zm8.5974-4.5484 4.6837-2.4779a6.4166 6.4166 0 0 1-2.6712 8.6724l-2.4808-4.6892a2.4773 2.4773 0 0 0 0.46835-1.5053z" fill="#1a1a1a" fill-opacity=".19204" stop-color="#000000" stroke-linecap="square" stroke-linejoin="bevel" stroke-opacity=".91696" stroke-width=".077354"/>
   <circle cx="-388.5" cy="109.52" r="1.3166" fill="#f2f2f2" fill-opacity=".3045" stop-color="#000000"/>
  </g>
 </g>
</svg>
